<?xml version="1.0" encoding="UTF-8"?>
<svg width="11px" height="7px" viewBox="0 0 11 7" version="1.1" xmlns="http://www.w3.org/2000/svg" xmlns:xlink="http://www.w3.org/1999/xlink">
    <title>Path</title>
    <g id="Page-1" stroke="none" stroke-width="1" fill="none" fill-rule="evenodd">
        <g id="homepage" transform="translate(-1160.000000, -703.000000)" fill="#1E1D1D" fill-rule="nonzero" stroke="#1E1D1D">
            <g id="form" transform="translate(670.000000, 166.000000)">
                <g id="select" transform="translate(50.000000, 504.000000)">
                    <path d="M449.488213,38.0894374 L445.484446,34.0859407 C445.427242,34.028677 445.361433,34 445.286987,34 C445.212541,34 445.146611,34.028677 445.089377,34.0859407 L441.085941,38.0894374 C441.028587,38.1467914 441,38.212601 441,38.287077 C441,38.3615229 441.028677,38.4274228 441.085941,38.4846564 L441.515404,38.9140893 C441.572667,38.9713531 441.638567,39 441.713013,39 C441.787459,39 441.853359,38.9713531 441.910623,38.9140893 L445.286987,35.5377856 L448.663471,38.9143 C448.720705,38.9715637 448.786635,39 448.86096,39 C448.935526,39 449.001426,38.9713832 449.05866,38.9143 L449.488183,38.4846865 C449.545417,38.4274529 449.573853,38.3615229 449.573853,38.2871071 C449.573853,38.212601 449.545447,38.1467011 449.488213,38.0894374 Z" id="Path" transform="translate(445.286927, 36.500000) rotate(-180.000000) translate(-445.286927, -36.500000) "></path>
                </g>
            </g>
        </g>
    </g>
</svg>